<svg xmlns="http://www.w3.org/2000/svg" width="512" height="512" viewBox="0 0 512 512" version="1.1">
	<path d="M 452.275 1.539 C 439.345 5.021, 436.331 7.389, 405.410 38.362 C 389.411 54.388, 308.925 135.081, 226.553 217.679 L 76.785 367.858 82.873 395.576 C 86.222 410.822, 89.083 423.378, 89.231 423.479 C 89.985 423.994, 141.882 435, 143.559 435 C 144.832 435, 208.274 372.182, 324.589 255.750 C 502.155 78.006, 503.686 76.439, 506.926 69.211 C 513.358 54.859, 513.438 40.944, 507.164 27.538 C 497.686 7.282, 473.495 -4.176, 452.275 1.539 M 22.837 468.249 C 18.087 477.187, 10.949 490.722, 6.974 498.326 L -0.252 512.152 6.624 508.689 C 13.277 505.338, 59.280 481, 59.715 480.601 C 59.833 480.492, 53.527 474.012, 45.701 466.201 L 31.473 451.998 22.837 468.249" stroke="none" fill="black" fill-rule="evenodd"/>
</svg>