<svg xmlns="http://www.w3.org/2000/svg" width="512" height="512" viewBox="0 0 512 512" version="1.1">
	<path d="M 392.698 1.096 C 380.304 4.012, 388.998 -4.238, 211.684 172.873 C 120.485 263.968, 45.239 339.683, 44.471 341.129 C 43.702 342.575, 33.331 377.852, 21.424 419.523 C -1.659 500.305, -1.519 499.654, 2.879 505.830 C 5.303 509.234, 10.582 512, 14.657 512 C 18.004 512, 167.004 469.584, 170.874 467.529 C 172.318 466.762, 248.005 391.517, 339.067 300.317 C 484.188 154.977, 504.965 133.799, 507.312 128.824 C 514.849 112.846, 513.073 95.240, 502.514 81.257 C 500.124 78.091, 482.942 60.413, 464.334 41.974 C 429.100 7.062, 425.796 4.363, 414.650 1.395 C 408.919 -0.131, 398.513 -0.273, 392.698 1.096 M 397.500 31.438 C 395.850 32.187, 386.964 40.385, 377.753 49.657 L 361.006 66.515 403.274 108.774 L 445.541 151.032 463.188 133.266 C 477.876 118.480, 480.950 114.882, 481.517 111.815 C 482.963 103.995, 481.941 102.686, 446.635 67.142 C 408.800 29.052, 406.481 27.367, 397.500 31.438 M 209.247 218.253 L 78.997 348.506 121.251 390.751 L 163.506 432.997 294 302.500 L 424.494 172.003 382.502 130.002 C 359.406 106.901, 340.281 88, 340.003 88 C 339.725 88, 280.885 146.614, 209.247 218.253 M 64.541 379.051 C 63.535 381.706, 37.137 474.471, 37.332 474.666 C 37.691 475.024, 132.495 447.783, 133.228 447.112 C 133.628 446.745, 118.461 430.955, 99.523 412.023 C 76.281 388.789, 64.912 378.072, 64.541 379.051" stroke="none" fill="black" fill-rule="evenodd"/>
</svg>